<?xml version="1.0" encoding="UTF-8"?>
<svg width="600" height="400" version="1.1" xmlns="http://www.w3.org/2000/svg">
 <path d="m420.46 141.01c1.3373 0 2.5929 0.01 3.9136 0.11747 0.23451 0.0188 0.23451 0.0188 0.47373 0.0379 0.50757 0.0408 1.015 0.0829 1.5225 0.12517 0.35575 0.0291 0.71152 0.0581 1.0673 0.0871 0.74075 0.0605 1.4815 0.1217 2.2221 0.18334 0.95109 0.0791 1.9023 0.15644 2.8536 0.23332 0.73234 0.0594 1.4646 0.11971 2.1969 0.18032 0.35103 0.0289 0.70206 0.0576 1.0531 0.0859 0.48787 0.0395 0.97563 0.0802 1.4634 0.12136 0.27768 0.0229 0.55538 0.0458 0.84149 0.0694 0.62026 0.0764 0.62026 0.0764 0.83987 0.29605 0.0217 0.58251 0.029 1.1593 0.027 1.7419v0.56257c0 0.63021 0 1.2604-2e-3 1.8906 1.1e-4 0.45312 0 0.90624 0 1.3594 0 1.2515 0 2.503-2e-3 3.7544v4.0415c1.3e-4 2.3362 0 4.6724-2e-3 7.0086-2e-3 2.451-2e-3 4.9021-2e-3 7.3532-2e-5 0.15222-2e-5 0.30443-4e-5 0.46126-7e-5 0.77298-1.3e-4 1.546-2e-4 2.3189 0 5.4796-2e-3 10.959-4e-3 16.439-2e-3 5.3244-4e-3 10.649-4e-3 15.973-4e-5 0.16403-6e-5 0.32806-8e-5 0.49706v4.9416c0 3.3557-2e-3 6.7115-2e-3 10.067-7e-5 0.23145-7e-5 0.23145-1.1e-4 0.46758-2e-3 10.31-5e-3 20.619-9e-3 30.929-6.1648 0-12.303-0.81268-18.448-1.3177v-110.03zm-61.272 123.64c3.2129 0 3.2129 0 4.5492 0.057 0.1461 6e-3 0.2922 0.0121 0.44273 0.0184 0.47013 0.0197 0.94022 0.0403 1.4103 0.061 0.3325 0.0143 0.665 0.0285 0.99751 0.0427 0.69082 0.0297 1.3816 0.0598 2.0724 0.0903 0.88283 0.0389 1.7657 0.0764 2.6486 0.11367 0.68413 0.029 1.3682 0.0588 2.0523 0.0888 0.32561 0.0142 0.65123 0.0281 0.97686 0.0417 0.45439 0.0192 0.90873 0.0394 1.3631 0.0598 0.38649 0.0168 0.38649 0.0168 0.78078 0.034 0.68164 0.0491 1.3581 0.15869 2.0322 0.27104v109.81c-6.4457 0-12.887-0.36616-19.326-0.65884v-110.03zm-176.35-123.64v110.03c-17.295 1.5373-17.295 1.5373-19.326 1.5373v-110.03c18.228-1.5373 18.228-1.5373 19.326-1.5373zm18.228 125.84v19.546c-0.60596 0.30298-1.1451 0.29528-1.8216 0.34534-0.14183 0.0107-0.28368 0.0215-0.42981 0.0326-0.47078 0.0354-0.94164 0.0694-1.4125 0.10337-0.32841 0.0242-0.6568 0.0486-0.98521 0.0729-0.69025 0.051-1.3806 0.1013-2.0709 0.15115-0.87872 0.0635-1.7573 0.1286-2.6359 0.19422-0.67957 0.0506-1.3592 0.1003-2.0389 0.14977-0.32349 0.0236-0.64698 0.0475-0.97045 0.0717-0.45645 0.034-0.91296 0.0668-1.3695 0.0993-0.2586 0.0188-0.51722 0.0377-0.78365 0.0571-1.089 0.0512-2.1801 0.0402-3.2702 0.0402v90.481c-17.789 1.5373-17.789 1.5373-19.985 1.5373v-90.261c-2.609 0.28989-5.218 0.57978-7.9061 0.87846-2.8841 0.30748-2.8841 0.30748-4.1955 0.44158-0.5382 0.0552-1.0763 0.11135-1.6144 0.1675-0.35073 0.0361-0.70145 0.0721-1.0522 0.10809-0.15687 0.0164-0.31376 0.0329-0.4754 0.0499-0.7795 0.0788-1.5426 0.11793-2.3255 0.1114-5e-3 -2.5446-9e-3 -5.0893-0.0114-7.6339-2e-3 -1.1814-3e-3 -2.3629-5e-3 -3.5443-2e-3 -1.1392-4e-3 -2.2783-4e-3 -3.4175 0-0.43564-2e-3 -0.87127-2e-3 -1.3069-2e-3 -0.60795-2e-3 -1.2159-2e-3 -1.8238 0-0.18198-2e-3 -0.36396-2e-3 -0.55145 2e-3 -1.2427 2e-3 -1.2427 0.24693-1.4873 0.60321-0.0788 1.2033-0.14441 1.8086-0.20213 0.19142-0.019 0.38283-0.038 0.58004-0.0576 0.64404-0.0637 1.2882-0.12589 1.9324-0.18805 0.45635-0.0447 0.91271-0.0894 1.3691-0.13422 1.2358-0.12092 2.4718-0.24034 3.7078-0.35928 0.77221-0.0743 1.5444-0.14899 2.3165-0.22369 12.17-1.176 24.35-2.2256 36.546-3.1038 0.256-0.0185 0.51201-0.037 0.77576-0.056 0.7056-0.0505 1.4113-0.10005 2.117-0.14901 0.20127-0.0143 0.40255-0.0286 0.60993-0.0434 0.18733-0.0127 0.37468-0.0254 0.5677-0.0385 0.15894-0.011 0.31787-0.0219 0.48162-0.0332 0.77049-0.032 1.5414-0.023 2.3117-0.023zm150.44-129.57c5.6002 0 5.6002 0 8.083 0.1059 0.18333 8e-3 0.36666 0.0154 0.55555 0.0234 0.18945 8e-3 0.3789 0.016 0.57409 0.0243 0.41108 0.0167 0.82216 0.0334 1.2332 0.05 1.0986 0.0448 2.1971 0.0911 3.2956 0.1379 0.69109 0.0294 1.3822 0.0585 2.0733 0.0874 10.033 0.42219 20.06 0.95627 30.085 1.5476 0.15987 9e-3 0.31975 0.0188 0.48447 0.0285 1.9525 0.11518 3.9048 0.23336 5.8569 0.35577 0.31301 0.0194 0.31301 0.0194 0.63236 0.0393 0.56192 0.0352 1.1238 0.0715 1.6856 0.1083 0.15656 0.01 0.31312 0.0196 0.47442 0.0297 0.78842 0.0534 1.5058 0.16083 2.2862 0.31692v19.546c-2.7182 0-2.7182 0-3.9489-0.0772-0.27484-0.0169-0.54967-0.0338-0.83283-0.0511-0.43316-0.0278-0.43316-0.0278-0.87508-0.0561-0.30693-0.0192-0.61386-0.0384-0.9208-0.0575-0.639-0.04-1.278-0.0804-1.9169-0.12131-0.81383-0.052-1.6277-0.10297-2.4416-0.15355-0.63234-0.0394-1.2646-0.0793-1.897-0.11928-0.29993-0.019-0.59988-0.0378-0.89983-0.0565-0.42064-0.0263-0.84124-0.0533-1.2618-0.0803-0.23801-0.0151-0.47603-0.0302-0.72126-0.0458-0.91241-0.0722-1.8219-0.1783-2.7315-0.27937v90.261c-6.7412 0-13.473-0.52414-20.204-0.87845v-90.481h-4.3923c-0.96184-0.0232-1.9214-0.05-2.8824-0.0884-0.24588-9e-3 -0.49177-0.0185-0.74511-0.028-0.51068-0.0194-1.0213-0.0391-1.532-0.0593-0.77508-0.0305-1.5502-0.0594-2.3254-0.0882-0.50185-0.0192-1.0037-0.0385-1.5056-0.0579-0.22721-8e-3 -0.45444-0.0169-0.68854-0.0257-1.54-0.0618-3.0568-0.1832-4.5959-0.31146v-19.546zm-221.32 139.81c0.66883 0.58835 1.2994 1.2079 1.925 1.8418 0.14664 0.14693 0.2933 0.29385 0.44437 0.44523 5.4053 5.7844 6.5903 14.784 6.5844 22.341-1.5e-4 0.2569 0 0.51381 0 0.77849-2e-4 0.19572 0 0.39143 0 0.59308-2.5122 0.28662-5.0244 0.57299-7.5366 0.85902-1.1664 0.13281-2.3329 0.26571-3.4993 0.39882-1.1249 0.12837-2.2498 0.2565-3.3747 0.38447-0.42996 0.0489-0.8599 0.098-1.2898 0.14711-0.60051 0.0686-1.201 0.13689-1.8016 0.20511-0.26869 0.0308-0.26869 0.0308-0.54284 0.0622-1.2321 0.13937-1.2321 0.13937-1.7214 0.13937-0.0132-0.21189-0.0132-0.21189-0.0264-0.42807-0.30393-5.252-0.30393-5.252-2.1698-10.113-0.073-0.15485-0.14608-0.3097-0.22132-0.46925-0.28614-0.53735-0.53852-0.616-1.0964-0.84843-0.21289-0.11324-0.42578-0.22648-0.64511-0.34315-1.7976-0.84379-3.9377-0.62363-5.7786 0.0274-2.4228 1.1113-3.5922 2.9811-4.557 5.3668-0.22009 0.65926-0.35496 1.2874-0.43922 1.9765-0.0238 0.17099-0.0476 0.34198-0.0721 0.51815-0.50379 4.375-0.60424 10.045 2.0958 13.74 3.2485 3.7744 8.8988 5.3169 13.383 7.1024 9.465 3.7704 9.465 3.7704 12.924 7.1888 0.15995 0.1441 0.31989 0.28819 0.48469 0.43666 4.8643 4.4805 6.1849 11.736 6.4743 18.025 0.4317 11.325-0.60123 22.622-8.6507 31.31-6.7048 6.91-16.603 9.1607-25.938 9.3593-5.9905-0.12628-11.695-1.707-15.986-6.0897-5.6999-6.2103-6.9114-16.118-6.897-24.22v-0.65424c0-0.16369 0-0.32739 2e-3 -0.49605 3.87-0.61158 7.7455-1.1715 11.628-1.6954 0.73151-0.0988 1.4629-0.19836 2.1943-0.2983 0.70828-0.0967 1.4167-0.19242 2.1251-0.28827 0.26096-0.0357 0.52195-0.0713 0.79082-0.1081 0.36138-0.0485 0.36138-0.0485 0.73007-0.098 0.211-0.0286 0.42201-0.0571 0.63942-0.0865 0.55897-0.0608 0.55897-0.0608 1.4374-0.0608 0.20277 0.60828 0.26593 1.0561 0.30625 1.6891 0.31245 6.1818 0.31245 6.1818 3.2899 11.392 1.743 1.2817 3.499 1.3938 5.6276 1.1942 2.1254-0.40119 3.8987-1.1775 5.2218-2.9339 1.3717-2.1598 1.8336-4.3397 1.8582-6.8681 2e-3 -0.18141 4e-3 -0.36282 7e-3 -0.54972 0.29804-7.2946 0.29804-7.2946-2.6667-13.71-2.649-2.3598-6.1044-3.6086-9.3336-4.9413-0.8944-0.37198-1.7882-0.74532-2.6817-1.1195-0.2154-0.0902-0.43077-0.18037-0.65269-0.27328-5.2183-2.1974-5.2183-2.1974-7.3992-3.6034-0.1426-0.0908-0.28519-0.1815-0.43209-0.275-1.4848-0.96828-2.8231-2.0802-4.1249-3.28-0.21006-0.19194-0.42012-0.38388-0.63653-0.58163-3.9522-3.7751-6.3888-8.6991-7.05-14.132-0.0191-0.15165-0.0381-0.3033-0.0578-0.45955-0.23488-2.15-0.21536-4.3119-0.21672-6.472-1.5e-4 -0.20981 0-0.41962 0-0.63579 0.0114-10.197 2.1863-19.581 9.5924-27.019 4.2751-4.108 9.9873-6.4217 15.719-7.5794 0.17428-0.036 0.34857-0.0719 0.52813-0.10895 6.8416-1.3496 15.875-1.381 21.485 3.3182zm380.1 3.1595c6.805 6.0713 9.6322 15.213 10.15 24.102 0.083 1.775 0.13449 3.5503 0.17167 5.3267-2.1516-0.14877-4.2812-0.42251-6.4168-0.71375-0.3585-0.0484-0.71697-0.0968-1.0755-0.14519-0.74572-0.10073-1.4914-0.20192-2.237-0.30347-0.95492-0.13003-1.91-0.25901-2.8651-0.38766-0.73784-0.0995-1.4756-0.19945-2.2133-0.29957-0.35232-0.0478-0.70465-0.0954-1.057-0.14289-0.49081-0.0662-0.98156-0.13312-1.4723-0.20018-0.2788-0.0379-0.5576-0.0757-0.84485-0.11474-0.54194-0.0833-1.0563-0.18035-1.5833-0.32792-0.01-0.14356-0.0198-0.28713-0.0299-0.43504-0.30939-6.657-0.30939-6.657-3.484-12.303-2.1291-1.5792-4.1827-1.9893-6.808-1.7569-1.5819 0.36702-2.6387 1.2907-3.5138 2.6354-2.0225 3.83-1.7463 9.5693-0.70002 13.654 1.6798 4.9554 5.8538 7.8589 10.043 10.591 10.054 6.5686 20.954 13.93 23.719 26.451 0.63389 3.0371 1.0112 5.9898 1.0222 9.098 2e-3 0.27874 2e-3 0.55748 4e-3 0.84467 2e-3 0.58918 4e-3 1.1784 4e-3 1.7675 0 0.5941 4e-3 1.1881 9e-3 1.7822 0.0473 6.0401-0.31949 11.836-3.1364 17.289-0.10135 0.20694-0.2027 0.41389-0.30713 0.62711-2.231 4.3695-6.0855 7.5681-10.714 9.1414-0.31534 0.0996-0.63132 0.19713-0.94794 0.29253-0.21046 0.0642-0.21046 0.0642-0.42513 0.12964-2.5129 0.70676-5.0888 0.87041-7.6868 0.85862-0.28592 0-0.57183-2e-3 -0.8664-3e-3 -9.0779-0.10847-18.088-2.6622-24.64-9.1837-5.897-6.1528-7.787-15.122-8.4784-23.33-0.0184-0.2181-0.0369-0.43621-0.056-0.66093-0.0953-1.2563-0.13069-2.5024-0.12702-3.7624 2.2e-4 -0.15091 0-0.30182 2e-3 -0.4573 0-0.36794 2e-3 -0.73587 4e-3 -1.1038 2.3539 0.25346 4.7078 0.50734 7.0616 0.76174 1.093 0.11812 2.186 0.2361 3.2791 0.35375 1.0552 0.11359 2.1103 0.22754 3.1654 0.34175 0.40224 0.0435 0.80447 0.0868 1.2067 0.13002 0.5641 0.0606 1.1282 0.1217 1.6922 0.18289 0.16572 0.0177 0.33142 0.0354 0.50215 0.0536 1.894 0.20666 1.894 0.20666 2.6384 0.37237 0.26854 0.53706 0.27148 0.93637 0.30625 1.5364 0.41204 7.3832 0.41204 7.3832 4.3056 13.397 0.63294 0.44316 1.2693 0.78916 1.9765 1.0981 0.20382 0.0906 0.40767 0.18118 0.61766 0.27452 2.1368 0.50276 4.2796 0.60653 6.259-0.43923 1.6246-1.3601 2.4531-3.0152 2.7864-5.106 0.0363-0.65361 0.0412-1.3066 0.0446-1.9611 2e-3 -0.19049 2e-3 -0.38098 4e-3 -0.57725 2e-3 -0.40351 4e-3 -0.80703 4e-3 -1.2105 2e-3 -0.6063 9e-3 -1.2124 0.0158-1.8187 0.0253-4.1779-0.46016-7.8641-3.4587-11.031-2.5349-2.5573-5.6119-4.4365-8.602-6.4074-10.159-6.7083-19.629-14.147-22.375-26.678-0.53856-2.6632-0.80319-5.307-0.81573-8.0236-2e-3 -0.21858-2e-3 -0.43716-4e-3 -0.66237-2e-3 -0.46064-4e-3 -0.92128-4e-3 -1.3819-2e-3 -0.68664-9e-3 -1.3731-0.0158-2.0597-0.0369-6.9508 0.97676-14.361 5.5589-19.885 0.16192-0.20015 0.32386-0.4003 0.4907-0.60652 2.9816-3.4932 6.9218-5.4696 11.368-6.4211 0.22251-0.0496 0.44503-0.0991 0.67428-0.15013 9.2318-1.6775 20.726 0.68788 27.876 6.9582zm-454.38-123.64c0.17227 0.52386 0.29595 1.0123 0.4047 1.5503 0.0357 0.1646 0.0714 0.32919 0.1081 0.49877 0.11995 0.55685 0.23567 1.1145 0.35145 1.6722 0.0852 0.39973 0.17066 0.79941 0.25635 1.199 0.23446 1.097 0.46528 2.1947 0.69552 3.2926 0.24537 1.1669 0.49411 2.3331 0.74247 3.4993 0.42495 1.9976 0.84782 3.9957 1.2693 5.9941 0.606 2.8734 1.2152 5.7461 1.8254 8.6186 0.88414 4.1621 1.7667 8.3245 2.6478 12.487 1.0463 4.943 2.0968 9.8852 3.154 14.826 0.0492 0.2302 0.0492 0.2302 0.0995 0.46505 0.28653 1.3391 0.57315 2.6781 0.85995 4.0171 0.41941 1.9582 0.83828 3.9166 1.2568 5.875 0.0584 0.27355 0.1169 0.5471 0.17712 0.82895 0.11767 0.55068 0.23533 1.1014 0.353 1.652 0.88898 4.1602 1.779 8.3202 2.67 12.48 0.57745 2.6961 1.1546 5.3923 1.7317 8.0885 0.37751 1.7639 0.75531 3.5278 1.1335 5.2915 0.28515 1.33 0.56983 2.6601 0.85436 3.9903 0.11618 0.54282 0.23253 1.0856 0.34903 1.6284 0.59531 2.7734 1.1805 5.5457 1.6803 8.3382-1.9801 0.33202-3.9605 0.66212-5.9412 0.99057-1.4395 0.23901-2.8785 0.48097-4.3174 0.7238-1.0973 0.18477-2.195 0.36784-3.2927 0.55062-0.54629 0.0913-1.0924 0.18335-1.6385 0.27606-0.77423 0.13134-1.5488 0.26022-2.3236 0.38857-0.23347 0.0402-0.46697 0.0804-0.70751 0.12179-0.2165 0.0354-0.43297 0.0708-0.65601 0.1072-0.1883 0.0316-0.37659 0.0633-0.5706 0.0958-0.58733 0.0434-1.0658-0.0394-1.6355-0.17985-0.51585-2.9416-1.0313-5.8834-1.5462-8.8252-0.23909-1.3659-0.47834-2.7317-0.71789-4.0975-0.23099-1.3171-0.46165-2.6342-0.69203-3.9514-0.0881-0.50351-0.17641-1.007-0.26481-1.5105-0.1234-0.70303-0.24636-1.4062-0.36921-2.1093-0.037-0.20994-0.0739-0.41988-0.11201-0.63618-0.0333-0.19093-0.0665-0.38186-0.1008-0.57858-0.0291-0.16641-0.0583-0.33281-0.0883-0.50426-0.0617-0.40731-0.0617-0.40731-0.0617-0.84654-0.11872 0.0218-0.23745 0.0437-0.35977 0.0662-0.5798 0.10663-1.1596 0.21325-1.7394 0.31987-0.21948 0.0404-0.43894 0.0807-0.66508 0.1223-1.2135 0.2231-2.4271 0.44601-3.6408 0.6686-0.36704 0.0673-0.36704 0.0673-0.74146 0.13599-0.49545 0.0909-0.99087 0.18172-1.4863 0.27258-1.2959 0.23778-2.5917 0.47654-3.8871 0.71714-0.66978 0.12431-1.3397 0.24791-2.0096 0.37136-0.30419 0.0562-0.60831 0.11283-0.91236 0.16978-0.41722 0.0781-0.83471 0.15492-1.2522 0.23166-0.34407 0.0639-0.34407 0.0639-0.6951 0.12916-0.58407 0.0845-1.1284 0.0961-1.7172 0.0896-0.0101 0.20032-0.0101 0.20032-0.0204 0.40469-0.15925 2.3964-0.58633 4.7507-0.98146 7.1171-0.078 0.47172-0.15597 0.94346-0.23382 1.4152-0.16256 0.98356-0.32578 1.967-0.48956 2.9504-0.20998 1.2606-0.4187 2.5215-0.62698 3.7824-0.16056 0.97181-0.32154 1.9436-0.48267 2.9153-0.0771 0.46512-0.15419 0.93024-0.23116 1.3954-0.10737 0.64808-0.21522 1.2961-0.32325 1.9441-0.0317 0.19189-0.0634 0.38379-0.0961 0.5815-0.0296 0.17664-0.0591 0.35328-0.0895 0.53528-0.0254 0.15286-0.0509 0.30572-0.077 0.46321-0.083 0.44273-0.18726 0.87608-0.30089 1.3119-4.023 0.80734-8.0476 1.6064-12.073 2.4007-0.66253 0.13074-1.325 0.26172-1.9875 0.3929-0.81363 0.16112-1.6273 0.32183-2.4411 0.48225-0.30676 0.0605-0.61349 0.12122-0.92018 0.18204-0.42316 0.0839-0.84642 0.16722-1.2697 0.25052-0.23995 0.0474-0.47992 0.0948-0.72714 0.14366-0.56625 0.10099-0.56625 0.10099-1.0055 0.10099 0.11817-1.6117 0.33307-3.1717 0.65539-4.7546 0.0443-0.22283 0.0886-0.44566 0.13428-0.67524 0.14769-0.74113 0.29718-1.4819 0.44667-2.2227 0.10697-0.53486 0.21384-1.0698 0.32061-1.6046 0.23051-1.1536 0.46181-2.307 0.69381-3.4603 0.34066-1.6935 0.67992-3.3873 1.0189-5.0811 0.55701-2.7833 1.1152-5.5663 1.6741-8.3492 0.53067-2.6425 1.0608-5.285 1.59-7.9278 0.032-0.1599 0.0641-0.3198 0.097-0.48454l0.38727-1.9337c2.9022-14.492 5.8187-28.981 8.7457-43.467 0.83119-4.1141 1.66-8.2288 2.4873-12.344 0.19577-0.97355 0.39157-1.9471 0.58742-2.9206l0.37383-1.8584c0.0453-0.2251 0.0453-0.2251 0.0915-0.45475 0.34416-1.711 0.68814-3.422 1.0318-5.1331 0.28806-1.4342 0.57644-2.8682 0.86514-4.3023 0.14879-0.73915 0.29745-1.4783 0.44573-2.2176 0.15999-0.79729 0.32048-1.5945 0.48111-2.3916 0.0471-0.2352 0.0941-0.4704 0.14262-0.71272 0.0648-0.32089 0.0648-0.32089 0.13095-0.64826 0.0559-0.27798 0.0559-0.27798 0.11286-0.56156 0.10614-0.4738 0.10614-0.4738 0.32575-1.1326 2.3369-0.41841 4.6739-0.83656 7.011-1.2544 1.0856-0.1941 2.1712-0.38828 3.2567-0.58267 1.0509-0.18817 2.1018-0.3761 3.1527-0.56389 0.39763-0.0711 0.79524-0.14226 1.1928-0.21351 1.0988-0.19691 2.1979-0.39219 3.2975-0.58509 0.36726-0.0647 0.73443-0.13013 1.1015-0.19606 0.54877-0.0985 1.0979-0.19484 1.6471-0.29079 0.166-0.0303 0.33201-0.0605 0.50307-0.0917 0.73302-0.12604 1.1799-0.19444 1.8971 0.0446zm-11.859 33.381c-0.46115 1.6876-0.74052 3.4049-1.0334 5.1277-0.0584 0.3407-0.1169 0.68139-0.17545 1.0221-0.15805 0.92093-0.31525 1.842-0.47226 2.7631-0.13126 0.76965-0.26296 1.5392-0.39469 2.3088-0.31057 1.8147-0.62047 3.6296-0.92993 5.4445-0.31927 1.8724-0.63956 3.7446-0.96035 5.6167-0.27563 1.6088-0.55072 3.2176-0.82533 4.8266-0.1639 0.96041-0.32803 1.9208-0.49266 2.8811-0.15461 0.9019-0.30849 1.8039-0.46182 2.706-0.0564 0.33115-0.11308 0.66225-0.17001 0.99332-0.0776 0.45148-0.15427 0.90312-0.23072 1.3548-0.0432 0.25279-0.0863 0.50558-0.13078 0.76604-0.11192 0.68146-0.11192 0.68146-0.0914 1.5235 1.0729-0.17068 2.1457-0.34231 3.2183-0.51472 0.36256-0.0581 0.72514-0.11606 1.0878-0.17372 2.8215-0.44881 5.6275-0.96035 8.4315-1.5077-0.32358-1.9035-0.64863-3.8068-0.97454-5.71-0.0255-0.1489-0.051-0.29779-0.0773-0.45119-1.1037-6.4422-2.2403-12.878-3.3817-19.314-0.0639-0.36012-0.0639-0.36012-0.12902-0.7275-0.5283-2.9786-1.0572-5.9571-1.5867-8.9355h-0.21961zm265.95-53.586c4.5278-0.0145 9.0538 0.0172 13.581 0.0818 0.86674 0.0123 1.7335 0.0233 2.6003 0.0339 0.67826 9e-3 1.3565 0.018 2.0348 0.0277 0.3201 4e-3 0.6402 9e-3 0.96031 0.0123 0.44292 5e-3 0.88582 0.012 1.3287 0.0188 0.37546 5e-3 0.37546 5e-3 0.75849 0.0103 0.68734 0.0342 1.3397 0.12704 2.0154 0.25437 0.94738 4.5432 1.8944 9.0865 2.8413 13.63 0.0546 0.26205 0.0546 0.26205 0.11032 0.52939 2.4487 11.75 4.8912 23.502 7.3291 35.254 0.60732 2.9276 1.2146 5.8552 1.8221 8.7828 0.0369 0.17782 0.0738 0.35564 0.11181 0.53884 1.4725 7.0966 2.9492 14.192 4.4281 21.288 0.22542 1.0816 0.45078 2.1632 0.67613 3.2448 0.90573 4.347 1.8116 8.6939 2.7196 13.04 0.34565 1.6545 0.6909 3.309 1.0358 4.9636 0.22919 1.0993 0.45892 2.1984 0.68912 3.2975 0.13612 0.65056 0.27171 1.3012 0.40713 1.9519 0.0908 0.43542 0.18223 0.87071 0.2737 1.306 0.0529 0.25459 0.10574 0.50919 0.16021 0.7715 0.0459 0.21946 0.0917 0.43892 0.13898 0.66502 0.0965 0.54388 0.0965 0.54388 0.0965 1.2027-4.235 0.043-8.4641-0.0825-12.697-0.20361-0.94838-0.027-1.8968-0.0532-2.8452-0.0795-1.847-0.0513-3.694-0.10343-5.541-0.15613-0.61666-3.0027-1.1732-6.0111-1.6848-9.0333-0.0726-0.42597-0.14516-0.85194-0.21781-1.2779-0.15023-0.88168-0.30004-1.7634-0.44951-2.6452-0.1918-1.1314-0.3845-2.2627-0.57748-3.3939-0.14911-0.87448-0.29786-1.749-0.44648-2.6236-0.071-0.41769-0.14212-0.83537-0.21331-1.253-0.0986-0.57896-0.19677-1.158-0.29477-1.7371-0.0294-0.17223-0.0589-0.34446-0.0892-0.52191-0.1993-1.182-0.1993-1.182-0.1993-1.6715-0.14848 1e-3 -0.29697 2e-3 -0.44995 3e-3 -6.2934 0.0407-12.584-0.0981-18.876-0.2231-0.0102 0.1804-0.0102 0.1804-0.0205 0.36444-0.16547 2.2619-0.59266 4.4848-0.98146 6.7164-0.078 0.45181-0.15595 0.90364-0.23382 1.3555-0.20413 1.1832-0.40943 2.3662-0.61495 3.5491-0.16776 0.96672-0.33469 1.9336-0.50158 2.9004-0.34483 1.9977-0.69019 3.9954-1.0371 5.9927-0.0317 0.18324-0.0634 0.36648-0.0961 0.55527-0.0443 0.2548-0.0443 0.2548-0.0895 0.51475-0.0381 0.2197-0.0381 0.2197-0.077 0.44383-0.0938 0.51636-0.19797 1.0308-0.3009 1.5454h-20.644c0.14876-1.4876 0.32964-2.8799 0.64324-4.3292 0.0432-0.20435 0.0864-0.40869 0.13094-0.61923 0.14489-0.68388 0.29145-1.3674 0.43798-2.0509 0.10588-0.49826 0.21165-0.99655 0.31731-1.4949 0.26107-1.2301 0.52318-2.46 0.78566-3.6897 0.34934-1.6372 0.6969-3.2749 1.0444-4.9125 0.0662-0.3119 0.13238-0.62381 0.19857-0.93572 0.10115-0.47669 0.20231-0.95339 0.30345-1.4301 0.20928-0.98626 0.41868-1.9725 0.62818-2.9587 1.1054-5.2037 2.2048-10.409 3.3006-15.614 0.0395-0.18771 0.079-0.37542 0.11974-0.56882 0.48805-2.3186 0.97588-4.6372 1.4636-6.9559 0.45615-2.1684 0.9125-4.3367 1.3689-6.505 0.16819-0.79913 0.33638-1.5983 0.50456-2.3974 0.0418-0.19876 0.0837-0.39752 0.12676-0.6023 0.29747-1.4134 0.59491-2.8268 0.89233-4.2402 1.1715-5.5672 2.3435-11.134 3.5158-16.701 0.27607-1.311 0.55212-2.622 0.82817-3.933 0.0908-0.4313 0.18164-0.86261 0.27246-1.2939 0.0447-0.21241 0.0894-0.42482 0.13553-0.64366 0.0446-0.21165 0.0891-0.42329 0.13504-0.64135 0.0444-0.21085 0.0888-0.4217 0.13454-0.63895 0.48146-2.2865 0.96294-4.573 1.4445-6.8596 0.36904-1.7524 0.73803-3.5048 1.107-5.2571 0.22319-1.0601 0.44643-2.1202 0.66971-3.1803 0.13666-0.64889 0.27326-1.2978 0.40986-1.9467 0.0963-0.45719 0.19261-0.91437 0.28896-1.3715 0.29178-1.3854 0.58154-2.7711 0.8667-4.1579 0.0766-0.37151 0.0766-0.37151 0.15471-0.75052 0.094-0.45711 0.18759-0.91432 0.28051-1.3717 0.0611-0.29677 0.0611-0.29677 0.12341-0.59955 0.0349-0.17135 0.0699-0.34271 0.10586-0.51926 0.10099-0.41612 0.10099-0.41612 0.3206-0.85534zm11.2 31.405c-0.83085 4.6597-1.6613 9.3194-2.4912 13.979-0.38532 2.1635-0.77079 4.327-1.1566 6.4904-0.33616 1.8851-0.67205 3.7702-1.0076 5.6554-0.17778 0.9987-0.3557 1.9974-0.53394 2.996-0.1676 0.93906-0.33485 1.8782-0.50182 2.8174-0.0615 0.34548-0.12311 0.69093-0.18486 1.0364-0.084 0.47006-0.16757 0.9402-0.25101 1.4104-0.047 0.26358-0.0939 0.52715-0.14232 0.79871-0.11119 0.58184-0.11119 0.58184-0.0995 1.0523 1.3096 0.28716 2.6114 0.24728 3.9445 0.24106 0.25161-2.2e-4 0.50322-6.6e-4 0.76246-8.8e-4 0.80103-1e-3 1.602-4e-3 2.4031-7e-3 0.54418-1e-3 1.0884-2e-3 1.6325-3e-3 1.3317-2e-3 2.6634-6e-3 3.9951-0.0107-0.13424-1.9215-0.43225-3.8008-0.76522-5.6966-0.056-0.32311-0.11194-0.64623-0.16779-0.96937-0.15068-0.87034-0.30255-1.7405-0.45465-2.6106-0.15944-0.91325-0.31779-1.8267-0.47627-2.7401-0.26595-1.5319-0.5326-3.0637-0.79975-4.5954-0.37661-2.1593-0.75195-4.3188-1.127-6.4784-0.29179-1.6797-0.5839-3.3594-0.87609-5.039-0.0313-0.17973-0.0625-0.35945-0.0947-0.54463-0.1797-1.0329-0.35956-2.0658-0.53968-3.0986-0.0545-0.3126-0.10894-0.6252-0.16333-0.93781-0.0743-0.42698-0.14882-0.85394-0.22333-1.2809-0.0416-0.23877-0.0832-0.47755-0.12612-0.72356-0.10464-0.58195-0.21687-1.1616-0.3352-1.7409h-0.21961zm-53.437 96.185c0.41497 4.4e-4 0.82994 8.8e-4 1.2449 1e-3 0.99966 1e-3 1.9993 3e-3 2.999 5e-3 0.0151 10.29 0.0267 20.58 0.0336 30.87 8.8e-4 1.2171 2e-3 2.4342 3e-3 3.6513 1.8e-4 0.24229 4.4e-4 0.48457 4.4e-4 0.73419 3e-3 3.9139 8e-3 7.8278 0.0141 11.742 6e-3 4.0213 0.01 8.0426 0.0112 12.064 8.8e-4 2.4778 4e-3 4.9556 9e-3 7.4334 4e-3 1.7032 5e-3 3.4064 4e-3 5.1096-4.4e-4 0.98007 1.9e-4 1.9601 4e-3 2.9402 0.0174 5.012-0.0287 10.012-1.3276 14.894-0.0558 0.21501-0.11165 0.43002-0.16916 0.65155-2.0616 7.6267-6.5242 14.581-13.43 18.648-3.8172 2.1065-7.8504 3.3282-12.165 3.9247-0.20864 0.0289-0.41728 0.0578-0.63224 0.0875-7.9821 0.85981-16.485-0.39144-22.876-5.5383-6.7071-5.5397-9.7222-13.837-10.551-22.309-0.31108-3.3539-0.25972-6.7206-0.2514-10.085 2e-3 -0.97748 1e-3 -1.955 8.7e-4 -2.9324-2.2e-4 -1.6879 1e-3 -3.3758 4e-3 -5.0638 4e-3 -2.4404 5e-3 -4.8807 5e-3 -7.3211 8.8e-4 -3.9606 4e-3 -7.9213 8e-3 -11.882 4e-3 -3.8442 7e-3 -7.6885 9e-3 -11.533 1.2e-4 -0.2375 2.2e-4 -0.47501 4.4e-4 -0.71972 6.6e-4 -1.1917 1e-3 -2.3834 2e-3 -3.575 5e-3 -9.8646 0.0126-19.729 0.0221-29.594 10.545-0.54354 10.545-0.54354 21.303-1.0981 3e-3 2.4197 6e-3 4.8394 0.01 7.3324 0.0107 7.7526 0.0246 15.505 0.0406 23.258 2e-3 1.2053 5e-3 2.4106 7e-3 3.6159 4.4e-4 0.23994 8.7e-4 0.47988 2e-3 0.7271 8e-3 3.8791 0.0132 7.7582 0.0178 11.637 5e-3 3.9838 0.012 7.9677 0.0216 11.952 6e-3 2.4559 0.01 4.9118 0.0111 7.3677 1e-3 1.6868 5e-3 3.3736 0.0102 5.0604 3e-3 0.97147 5e-3 1.9429 4e-3 2.9144-0.25655 8.556-0.25655 8.556 3.5338 15.894 1.7141 1.5972 3.7783 1.904 6.048 1.8804 2.4696-0.17748 4.3549-1.0855 6.042-2.873 2.7009-3.2889 2.9515-7.827 2.9541-11.886 1e-3 -0.33487 2e-3 -0.66975 3e-3 -1.0046 3e-3 -0.91748 5e-3 -1.835 6e-3 -2.7524 2e-3 -0.99041 5e-3 -1.9808 8e-3 -2.9712 5e-3 -1.715 9e-3 -3.4301 0.0122-5.1452 5e-3 -2.4797 0.0112-4.9594 0.0176-7.439 0.0104-4.0232 0.02-8.0465 0.0289-12.07 9e-3 -3.9079 0.0177-7.8157 0.0275-11.724 8.7e-4 -0.36141 8.7e-4 -0.36141 2e-3 -0.73012l9e-3 -3.6262c0.025-10.025 0.0485-20.051 0.0709-30.076 0.69466-0.0353 1.3893-0.0704 2.084-0.10546 0.29169-0.0148 0.29169-0.0148 0.58928-0.03 1.7575-0.0885 3.5149-0.15709 5.274-0.2077 0.14815-4e-3 0.29631-9e-3 0.44895-0.0131 2.8147-0.0795 5.6272-0.0948 8.4428-0.089zm234.13-112.58c0.85177 0.67173 1.6638 1.3826 2.4611 2.1178 0.19392 0.17835 0.38784 0.3567 0.58764 0.54046 5.8376 5.6106 9.0079 13.53 10.173 21.421 0.0369 0.24696 0.0737 0.49393 0.11163 0.74838 0.36942 2.7602 0.39131 5.4898 0.38793 8.2714 0 0.5228 2e-3 1.0456 3e-3 1.5684 3e-3 1.4098 3e-3 2.8197 2e-3 4.2296-2.2e-4 0.88351 2.2e-4 1.767 0 2.6505 1.3e-4 0.14743 0 0.29485 0 0.44675 2.2e-4 0.29967 0 0.59933 0 0.899 2e-3 2.8004 2e-3 5.6008 0 8.4012 0 2.5506 2e-3 5.1012 5e-3 7.6518 4e-3 2.6312 6e-3 5.2624 5e-3 7.8936 0 1.4723 1.5e-4 2.9446 3e-3 4.4169 3e-3 1.386 2e-3 2.7721 0 4.1581 0 0.50475 4e-5 1.0095 2e-3 1.5142 0.0306 9.1071-1.8124 18.206-8.3612 24.935-4.7134 4.6879-11.137 6.3849-17.635 6.3823-5.4241-0.0814-11.11-0.99409-16.035-3.3489-0.2457-0.1172-0.2457-0.1172-0.49637-0.23677-2.3846-1.1569-4.5167-2.428-6.5313-4.1555-0.17011-0.14481-0.17011-0.14481-0.34367-0.29254-7.5958-6.518-10.982-16.204-11.851-25.934-0.16232-2.1734-0.13636-4.3499-0.13579-6.5282 0-0.48806-2e-3 -0.97612-2e-3 -1.4642-2e-3 -1.3192-2e-3 -2.6383-3e-3 -3.9575-1.6e-4 -0.82656 0-1.6531 0-2.4797-2e-3 -2.7417-3e-3 -5.4833-3e-3 -8.225 3e-5 -0.14733 3e-5 -0.29467 5e-5 -0.44647 0-0.14752 0-0.29504 2e-5 -0.44703 9e-5 -2.3859-2e-3 -4.7719-5e-3 -7.1578-3e-3 -2.4604-5e-3 -4.9209-4e-3 -7.3813 4e-5 -1.3771 0-2.7541-3e-3 -4.1312-2e-3 -1.2973-2e-3 -2.5947 0-3.892 2.2e-4 -0.47217-2.2e-4 -0.94434-2e-3 -1.4165-0.0105-3.9877 0.11144-8.0148 0.97496-11.923 0.0471-0.21715 0.0941-0.4343 0.14262-0.65804 1.5655-6.9082 5.02-13.329 11.094-17.251 10.304-6.355 26.078-4.013 35.455 3.0812zm-23.728 15.967c-2.205 2.7685-2.3951 6.8973-2.3917 10.288 0 0.20758-2e-3 0.41516-2e-3 0.62903-2e-3 0.68956-2e-3 1.3791-3e-3 2.0687 0 0.49697-2e-3 0.99394-3e-3 1.4909-3e-3 1.3464-4e-3 2.6928-5e-3 4.0392 0 0.84314-2e-3 1.6863-3e-3 2.5294-3e-3 2.3412-5e-3 4.6825-6e-3 7.0237-6e-5 0.14952-1.1e-4 0.29904-1.5e-4 0.45309-5e-5 0.14984-9e-5 0.29969-1.6e-4 0.45408-8e-5 0.30357-1.7e-4 0.60714-2.1e-4 0.91071-5e-5 0.15058-9e-5 0.30116-1.4e-4 0.4563 0 2.4344-5e-3 4.8688-0.01 7.3032-5e-3 2.5083-8e-3 5.0166-8e-3 7.5249-2.1e-4 1.4047-2e-3 2.8094-5e-3 4.2141-4e-3 1.3237-4e-3 2.6473-2e-3 3.9709 1.5e-4 0.48218 0 0.96435-3e-3 1.4465-0.0213 4.9643 0.0494 10.646 3.5456 14.581 2.0987 1.9916 4.8866 2.7654 7.7242 2.704 1.6877-0.17049 3.211-0.79693 4.4378-1.9808 3.2032-3.9684 2.8547-9.4666 2.8534-14.276 0-0.48044 2e-3 -0.96088 2e-3 -1.4413 2e-3 -1.2992 2e-3 -2.5983 3e-3 -3.8975 1.5e-4 -0.81363 0-1.6273 0-2.4409 2e-3 -2.9908 3e-3 -5.9816 3e-3 -8.9725-8e-5 -2.4952 2e-3 -4.9905 6e-3 -7.4857 3e-3 -2.2757 4e-3 -4.5514 4e-3 -6.8271-7e-5 -1.3558 0-2.7116 3e-3 -4.0674 2e-3 -1.2768 2e-3 -2.5536 0-3.8304-2.2e-4 -0.46536 2.2e-4 -0.93072 2e-3 -1.3961 0.0622-8.1888 0.0622-8.1888-3.624-15.252-3.512-3.2315-9.0866-3.7475-12.518-0.21961zm-35.43 106.29c7.4862 6.5446 10.715 15.999 11.547 25.684 0.10144 1.8045 0.0906 3.6104 0.0852 5.417 0 0.51835 2e-3 1.0367 4e-3 1.555 3e-3 1.3907 2e-3 2.7814-2.2e-4 4.1722v2.6171c8e-5 0.14594 1.9e-4 0.29188 2.2e-4 0.44224 1.9e-4 0.29669 0 0.59339 0 0.89008 2e-3 2.7658-2.2e-4 5.5317-4e-3 8.2975-3e-3 2.361-2e-3 4.7219 0 7.0829 4e-3 2.758 5e-3 5.5159 3e-3 8.2739-2.2e-4 0.29538 0 0.59077 0 0.88616-1.1e-4 0.14524-2e-4 0.29049 0 0.44013 0 1.0119 0 2.0238 2e-3 3.0357 2e-3 1.3677 0 2.7353-3e-3 4.103v1.4927c0.0228 8.511-1.5282 17.271-7.1151 23.986-0.16902 0.20497-0.33801 0.40993-0.51214 0.62109-4.2601 4.9276-10.293 7.3041-16.684 7.8272-9.4331 0.63541-18.951-1.453-26.186-7.7639-5.575-4.9892-8.6422-11.756-10.149-18.981-0.0437-0.20514-0.0873-0.41028-0.13233-0.62163-0.77585-3.9624-0.86641-7.9968-0.85786-12.021-6.6e-4 -0.48151-1e-3 -0.96301-2e-3 -1.4445-2e-3 -1.2923-1e-3 -2.5846 1.7e-4 -3.8769 1e-3 -1.3623 7e-5 -2.7246-6.6e-4 -4.0869-8.8e-4 -2.2866 2.2e-4 -4.5731 2e-3 -6.8597 2e-3 -2.6307 2e-3 -5.2614-8.8e-4 -7.8921-2e-3 -2.2722-2e-3 -4.5444-1e-3 -6.8166 6.6e-4 -1.3512 8.8e-4 -2.7023-6.6e-4 -4.0534-1e-3 -1.2714-4.4e-4 -2.5428 2e-3 -3.8142 6.6e-4 -0.46216 4.4e-4 -0.92432-6.6e-4 -1.3865-8e-3 -4.0819 0.13024-8.2087 0.9779-12.215 0.0472-0.2268 0.0944-0.45359 0.1431-0.68726 1.0877-4.9832 3.1108-9.5239 6.4043-13.437 0.12258-0.15825 0.24516-0.3165 0.37146-0.47954 3.7645-4.6891 9.9256-7.0368 15.714-7.7757 9.4339-0.95996 19.087 1.2024 26.392 7.3879zm-25.582 14.616c-3.2565 4.0328-2.9078 9.963-2.8972 14.85-6.6e-4 0.47133-1e-3 0.94267-2e-3 1.414-2e-3 1.2664-1e-3 2.5328 1.6e-4 3.7992 1e-3 1.3341 8e-5 2.6682-6.5e-4 4.0022-8.8e-4 2.2393 2.2e-4 4.4787 2e-3 6.718 2e-3 2.5776 2e-3 5.1551-8.8e-4 7.7327-2e-3 2.225-2e-3 4.45-1e-3 6.675 6.6e-4 1.3236 8.8e-4 2.6473-6.6e-4 3.9709-1e-3 1.2454-4.4e-4 2.4909 2e-3 3.7363 6.6e-4 0.45314 4.4e-4 0.90628-4.4e-4 1.3594-4e-3 2.2543 0.045 4.4877 0.25141 6.7336 0.025 0.27645 0.025 0.27645 0.0505 0.55849 0.32908 3.2193 1.266 6.3169 3.6957 8.5798 2.4052 1.9409 5.1447 2.2635 8.1394 1.9902 1.7727-0.37144 3.2185-1.3972 4.2747-2.8618 2.2308-3.7427 2.1596-7.9383 2.1544-12.141 0-0.51545 2e-3 -1.0309 3e-3 -1.5464 3e-3 -1.3935 3e-3 -2.787 3e-3 -4.1805 0-1.3147 0-2.6294 2e-3 -3.9441 2e-3 -2.7639 2e-3 -5.5278 0-8.2917-2e-3 -2.52 2e-3 -5.04 5e-3 -7.5601 4e-3 -2.5964 6e-3 -5.1928 5e-3 -7.7893 0-1.4541 1.5e-4 -2.9082 3e-3 -4.3624 3e-3 -1.3687 2e-3 -2.7374 0-4.1062 0-0.49945 7e-5 -0.9989 2e-3 -1.4983 0.0163-4.7894-0.0961-9.8098-3.5408-13.502-1.9239-1.8601-4.4455-2.5442-7.0705-2.505-1.9618 0.17244-3.6685 0.77245-5.0803 2.1687zm-124.83-24.762c0.36045-1e-3 0.36045-1e-3 0.72818-2e-3 0.77679-2e-3 1.5536-2e-3 2.3304-3e-3 0.55172-6.6e-4 1.1035-2e-3 1.6552-2e-3 1.15-1e-3 2.3001-2e-3 3.4501-2e-3 1.4578 3e-5 2.9155-3e-3 4.3732-7e-3 1.1379-2e-3 2.2758-3e-3 3.4138-3e-3 0.53671-2.2e-4 1.0734-1e-3 1.6101-3e-3 9.8756-0.0288 19.035 1.043 26.384 8.22 4.1324 4.1874 6.6023 9.4346 8.0296 15.085 0.0784 0.30049 0.0784 0.30049 0.15849 0.60705 1.406 5.8875 1.2168 11.948 1.2065 17.955-2e-3 1.2963-1.2e-4 2.5926 8.7e-4 3.889 1e-3 2.1752-4.3e-4 4.3503-4e-3 6.5255-4e-3 2.4992-2e-3 4.9984 1e-3 7.4977 3e-3 2.1626 3e-3 4.3251 2e-3 6.4877-1e-3 1.2843-1e-3 2.5685 1e-3 3.8528 0.0161 10.853-0.38983 22.037-7.7763 30.736-0.15485 0.19051-0.3097 0.38105-0.46925 0.57734-4.7 5.5514-11.622 7.8669-18.637 8.6464h-33.601v-109.81c5.0498-0.25249 5.0498-0.25249 7.1423-0.25152zm13.941 19.797v70.716c7.3865 0.66752 7.3865 0.66752 14.277-1.9568 3.5388-3.7122 3.5788-8.9638 3.5724-13.764 8.8e-4 -0.4747 2e-3 -0.94939 3e-3 -1.4241 3e-3 -1.2823 3e-3 -2.5646 2e-3 -3.847-2.2e-4 -1.074 8.8e-4 -2.1479 2e-3 -3.2218 2e-3 -2.5357 3e-3 -5.0714 1e-3 -7.6071-1e-3 -2.6079 1e-3 -5.2157 6e-3 -7.8236 4e-3 -2.2462 5e-3 -4.4924 4e-3 -6.7387-4.4e-4 -1.3384 1.6e-4 -2.6767 3e-3 -4.0151 3e-3 -1.2597 2e-3 -2.5193-4.4e-4 -3.779-4.4e-4 -0.45952 7e-5 -0.91905 2e-3 -1.3786 0.0156-4.2665-0.0802-9.2134-3.1592-12.524-0.21317-0.23058-0.21317-0.23058-0.43065-0.46582-3.7446-3.6838-9.5942-2.1695-14.283-2.1695zm-159.88-139.02v110.03c-18.228 1.9765-18.228 1.9765-19.106 1.7569-0.25264-0.4248-0.25264-0.4248-0.45686-0.99282-0.079-0.2142-0.15795-0.42841-0.23929-0.6491-0.0831-0.2364-0.16619-0.4728-0.25179-0.71636-0.0897-0.24631-0.17943-0.49263-0.27186-0.74641-0.24533-0.67551-0.48752-1.352-0.72844-2.0291-0.25532-0.71501-0.51471-1.4285-0.77376-2.1422-0.42656-1.1764-0.85105-2.3534-1.274-3.5311-0.80728-2.2466-1.6283-4.4882-2.4493-6.7298-0.25528-0.69749-0.51004-1.3952-0.76463-2.0929-1.4844-4.0679-2.9809-8.1314-4.4791-12.194-0.19308-0.52364-0.38619-1.0473-0.57927-1.5709-0.14225-0.38577-0.14225-0.38577-0.28737-0.77933-0.6277-1.7026-1.2542-3.4056-1.8796-5.1091-0.0843-0.22967-0.16865-0.45935-0.25555-0.69598-0.38669-1.0534-0.77324-2.1068-1.1596-3.1603-1.7357-4.7296-3.486-9.4538-5.2325-14.18-0.0725 19.857-0.14495 39.715-0.21962 60.174-17.789 2.4158-17.789 2.4158-18.667 2.4158v-110.03c17.096-2.4423 17.096-2.4423 18.887-2.4158 1.075 2.4612 1.9759 4.9862 2.8962 7.508 0.17508 0.47842 0.35024 0.95683 0.52545 1.4352 0.36337 0.99228 0.72646 1.9847 1.0894 2.9771 0.75528 2.0648 1.5139 4.1284 2.2724 6.192 0.32872 0.89436 0.65724 1.7888 0.98576 2.6832 0.6566 1.7876 1.3134 3.5752 1.9706 5.3627 1.7728 4.8217 3.5419 9.6446 5.3038 14.47 1.3413 3.6733 2.6846 7.3458 4.0323 11.017 0.17453 0.47538 0.34901 0.95078 0.52341 1.4262 0.24076 0.65617 0.48172 1.3122 0.72277 1.9683 0.0709 0.19343 0.14187 0.38686 0.21498 0.58616 0.0658 0.17896 0.13162 0.35792 0.19941 0.54231 0.0567 0.15428 0.11334 0.30857 0.17172 0.46753 0.19732 0.52344 0.40628 1.0424 0.61404 1.5618 0.0725-20.075 0.14494-40.15 0.21961-60.833 2.9654-0.49424 2.9654-0.49424 4.2442-0.63021 0.28574-0.0308 0.57148-0.0615 0.86587-0.0932 0.30234-0.0317 0.60466-0.0634 0.90701-0.095 0.31806-0.0338 0.63611-0.0676 0.95415-0.10151 0.66104-0.0703 1.3221-0.13996 1.9833-0.20925 0.84483-0.0886 1.6895-0.17849 2.5342-0.2688 0.65447-0.0698 1.309-0.13901 1.9636-0.20798 0.31155-0.0329 0.62307-0.066 0.93457-0.0993 0.43486-0.0464 0.8698-0.0918 1.3048-0.13713 0.2466-0.026 0.49323-0.052 0.74732-0.0787 0.66767-0.0535 1.3389-0.0554 2.0087-0.0554zm383.67 9.2238c3.0276 0.2523 3.0276 0.2523 4.4667 0.48647 0.24476 0.0386 0.24476 0.0386 0.49449 0.078 0.52768 0.0835 1.0552 0.16826 1.5826 0.2531 0.37042 0.0589 0.74087 0.11762 1.1113 0.17631 0.96626 0.15331 1.9323 0.30777 2.8984 0.46249 0.98929 0.15823 1.9788 0.31535 2.9682 0.47256 1.935 0.30762 3.8697 0.61645 5.8043 0.92607 0.062 0.18636 0.12391 0.37271 0.18775 0.56471 0.78787 2.3695 1.5763 4.7389 2.3653 7.108 0.0631 0.18957 0.12626 0.37914 0.19131 0.57446 1.5076 4.5268 3.0172 9.0526 4.5682 13.565 1.059 3.0814 2.0916 6.1713 3.1191 9.2634 1.1306 3.4024 2.2726 6.8002 3.4388 10.191 1.0162 2.9576 2.0085 5.9231 2.9969 8.8901 0.0666 0.19993 0.1332 0.39986 0.20183 0.60584 0.68201 2.0475 1.3633 4.0952 2.0436 6.1433 0.2578 0.77597 0.51585 1.5519 0.77392 2.3278 0.18043 0.54286 0.36052 1.0858 0.54058 1.6288 0.10994 0.33064 0.21992 0.66128 0.3299 0.9919 0.049 0.14827 0.0981 0.29653 0.14861 0.44929 0.25581 0.76752 0.53505 1.5111 0.83601 2.2635 0.0725-20.002 0.14494-40.005 0.21961-60.613 1.4188 0.12898 2.728 0.24893 4.1109 0.50314 0.15136 0.0275 0.30274 0.0551 0.45871 0.0834 0.49011 0.0894 0.97993 0.18031 1.4698 0.27132 0.34455 0.0633 0.68911 0.12641 1.0337 0.1895 0.71699 0.13151 1.4339 0.26373 2.1506 0.39653 0.91869 0.17018 1.8376 0.33898 2.7567 0.5073 0.7092 0.12998 1.4183 0.26047 2.1274 0.39113 0.33902 0.0625 0.67803 0.12479 1.0171 0.18702 0.472 0.0868 0.94386 0.17414 1.4157 0.26172 0.26826 0.0496 0.5365 0.0991 0.81288 0.1502 0.65493 0.13332 0.65493 0.13332 1.3138 0.35294v110.03c-3.4593-0.49418-3.4593-0.49418-4.8209-0.74768-0.22346-0.0413-0.22346-0.0413-0.45144-0.0835-0.47828-0.0886-0.95637-0.17816-1.4345-0.26774-0.33814-0.0629-0.67633-0.12576-1.0145-0.18856-0.70175-0.13047-1.4034-0.26136-2.105-0.39259-0.89831-0.16801-1.7968-0.3352-2.6952-0.50212-0.69525-0.1292-1.3904-0.2587-2.0856-0.3883-0.33148-0.0618-0.66299-0.12352-0.9945-0.18518-0.46129-0.0859-0.92255-0.17213-1.3838-0.25849-0.26187-0.0489-0.52374-0.0978-0.79355-0.1482-0.22063-0.0435-0.44125-0.087-0.66857-0.13184-0.15079-0.0211-0.30158-0.0422-0.45695-0.0639-0.42151-0.15571-0.42151-0.15571-0.64448-0.528-0.0535-0.16301-0.107-0.32602-0.16212-0.49397-0.0949-0.28029-0.0949-0.28029-0.19179-0.56624-0.0659-0.20685-0.13188-0.41369-0.19981-0.62681-0.0723-0.21691-0.14461-0.43381-0.2191-0.65729-0.24055-0.72447-0.47591-1.4505-0.71136-2.1767-0.16831-0.50999-0.33695-1.0199-0.50592-1.5297-0.44751-1.353-0.89073-2.7074-1.333-4.0622-0.4385-1.3412-0.88043-2.6813-1.3223-4.0214-0.17371-0.52692-0.34743-1.0538-0.52112-1.5808-0.12828-0.38909-0.12828-0.38909-0.25914-0.78604-0.25884-0.78573-0.51717-1.5716-0.77537-2.3576-1.3272-4.0367-2.6921-8.0595-4.0727-12.078-0.72639-2.1165-1.432-4.24-2.1355-6.3642-1.263-3.8126-2.5429-7.6189-3.8465-11.418-1.1508-3.3545-2.2757-6.7174-3.39-10.084-0.0618-0.18636-0.12362-0.37273-0.1873-0.56474-0.1144-0.34496-0.22853-0.69001-0.34229-1.0352-0.0776-0.23376-0.0776-0.23376-0.1567-0.47225-0.0439-0.1328-0.0878-0.2656-0.13297-0.40243-0.26501-0.75727-0.55242-1.5065-0.83412-2.2578-0.0725 19.857-0.14494 39.715-0.21961 60.174-6.3087-0.86028-12.596-1.872-18.887-2.855v-110.03zm-254.09-16.91v110.03c-16.032 0.43923-16.032 0.43923-19.985 0.43923-0.0725-23.264-0.14494-46.527-0.21961-70.496-1.377 3.7686-2.754 7.5371-4.1727 11.42-1.8804 5.0923-1.8804 5.0923-2.8018 7.5818-0.96888 2.6184-1.9322 5.2389-2.8944 7.8598-0.0813 0.22135-0.16257 0.4427-0.24632 0.67076-0.84597 2.3038-1.6915 4.6078-2.5366 6.9119-0.35132 0.95768-0.70278 1.9153-1.0543 2.8729-0.24278 0.66162-0.48534 1.3233-0.7279 1.985-0.37822 1.0312-0.7579 2.0619-1.1385 3.0923-0.16881 0.45768-0.33715 0.91554-0.50514 1.3735-0.26922 0.73347-0.54005 1.4663-0.81118 2.1991-0.12516 0.3424-0.12516 0.3424-0.25284 0.69171-0.0782 0.21038-0.15639 0.42075-0.23695 0.6375-0.0687 0.18645-0.13743 0.37291-0.20822 0.56501-0.2019 0.45376-0.2019 0.45376-0.64112 0.89299-1.0437-2.1322-1.853-4.3545-2.6876-6.5742-0.4611-1.2259-0.92513-2.4507-1.389-3.6756-0.0973-0.25694-0.19453-0.51389-0.29473-0.77861-1.0881-2.8713-2.194-5.7357-3.3014-8.5996-0.40693-1.0526-0.81383-2.1052-1.2207-3.1578-0.15058-0.38945-0.15058-0.38945-0.30419-0.78676-0.69483-1.7976-1.3876-3.596-2.079-5.395-0.0958-0.2492-0.19154-0.4984-0.29022-0.75515-0.44736-1.1642-0.8945-2.3285-1.3414-3.4929-1.5417-4.013-3.1026-8.018-4.6608-12.025-0.0725 22.611-0.14494 45.223-0.21961 68.52-17.569 1.0981-17.569 1.0981-19.985 1.0981v-110.03c18.008-1.0981 18.008-1.0981 23.279-1.3177 1.6826 4.3704 3.3402 8.7499 4.9825 13.136 1.7719 4.7316 3.5487 9.4613 5.3304 14.189 0.18488 0.49066 0.36972 0.98134 0.55455 1.472 0.67033 1.7795 1.3413 3.5587 2.0134 5.3375 0.19302 0.51121 0.38582 1.0225 0.57838 1.5339 0.24936 0.66219 0.49942 1.3241 0.74969 1.986 0.0717 0.19096 0.14341 0.38192 0.21729 0.57866 0.26011 0.81972 0.26011 0.81972 0.72722 1.5171 0.053-0.14829 0.10608-0.29658 0.16072-0.44936 2.4677-6.8976 4.9464-13.79 7.4894-20.661 1.1322-3.0595 2.2546-6.1221 3.3597-9.1914 0.0559-0.15536 0.1119-0.31072 0.16955-0.47079 0.54739-1.5204 1.0938-3.041 1.6386-4.5623 0.15114-0.42187 0.30251-0.84365 0.45396-1.2654 0.18508-0.51556 0.36971-1.0313 0.55382-1.5472 0.082-0.22824 0.164-0.45648 0.24848-0.69164 0.071-0.19828 0.14189-0.39656 0.21499-0.60085 0.0677-0.17489 0.13544-0.34979 0.20521-0.52998 0.063-0.16374 0.12604-0.32748 0.19097-0.49618 0.24825-0.38228 0.24825-0.38228 0.61078-0.54291 0.72699-0.0831 1.4515-0.10875 2.1824-0.12423 0.25039-6e-3 0.25039-6e-3 0.50585-0.0131 0.55266-0.014 1.1054-0.0266 1.6581-0.0392 0.38758-9e-3 0.77516-0.019 1.1627-0.0286 0.81469-0.02 1.6294-0.0393 2.4441-0.0581 1.0321-0.0238 2.0642-0.049 3.0962-0.0746 0.80252-0.0198 1.6051-0.0391 2.4076-0.0582 0.37965-9e-3 0.7593-0.0183 1.139-0.0276 0.53866-0.0131 1.0773-0.0255 1.616-0.0378 0.14995-4e-3 0.29991-8e-3 0.4544-0.0114 1.9375-0.0425 3.8718-0.0254 5.811-0.0254z"/>
 <path d="m420.02 11.87h18.448v106.51c-2.4995-0.13156-4.9872-0.26767-7.4797-0.47355-0.29229-0.0238-0.58457-0.0476-0.87685-0.0713-0.6021-0.0491-1.2042-0.0986-1.8062-0.14839-0.77006-0.0637-1.5402-0.12612-2.3104-0.18825-0.74219-0.0601-1.4843-0.1212-2.2264-0.18224-0.27539-0.0222-0.55081-0.0444-0.83455-0.0673-0.25469-0.0213-0.50935-0.0425-0.77174-0.0644-0.33518-0.0275-0.33518-0.0275-0.67712-0.0556-0.58615-0.0666-0.58615-0.0666-1.4646-0.28623v-104.98zm-64.127 0h18.448v84.112c2.1742 0.0725 4.3484 0.14495 6.5884 0.21962 1.5651 0.0761 3.1292 0.15582 4.6934 0.2462 0.41178 0.0233 0.82355 0.0466 1.2353 0.0698 0.8493 0.048 1.6986 0.0966 2.5478 0.14562 1.0721 0.0618 2.1444 0.12225 3.2166 0.18228 0.84554 0.0475 1.691 0.0957 2.5365 0.14417 0.39485 0.0225 0.78971 0.0449 1.1846 0.067 2.9954 0.16811 5.9718 0.42221 8.9629 0.68231v18.008c-3.2104 0-3.2104 0-4.5895-0.0869-0.15221-9e-3 -0.30441-0.0186-0.46123-0.0282-0.32725-0.0201-0.65447-0.0407-0.98168-0.0615-0.53312-0.034-1.0663-0.0668-1.5995-0.0994-0.77506-0.0474-1.5501-0.0951-2.3251-0.14315-8.1769-0.50552-16.356-0.92346-24.54-1.2836-4.9732-0.21888-9.9437-0.46445-14.916-0.71305v-101.46zm-129.79 0h56.221v18.228h-18.887v82.794c-2.718 0.2471-2.718 0.2471-3.9252 0.28487-0.26973 9e-3 -0.53946 0.0175-0.81736 0.0266-0.42492 0.0127-0.42492 0.0127-0.85843 0.0257-0.30148 9e-3 -0.60297 0.019-0.90445 0.0286-0.6277 0.0198-1.2554 0.0391-1.8831 0.0581-0.79862 0.0241-1.5972 0.0492-2.3958 0.0746-0.62121 0.0197-1.2424 0.039-1.8636 0.0582-0.4357 0.0135-0.8714 0.0272-1.3071 0.0409-0.26904 8e-3 -0.53807 0.0162-0.81526 0.0245-0.23363 7e-3 -0.46726 0.0143-0.70796 0.0216-0.98957 0.0195-1.9795 0.0152-2.9692 0.0152v-83.453h-18.887v-18.228zm67.641 0h50.731v18.228h-32.283v23.059h24.597v18.008h-24.597v41.287h-18.448v-100.58zm-129.57 0h50.511v18.228h-32.283v24.158c2.1742-0.10871 2.1742-0.10871 4.3923-0.21961 0.78626-0.016 1.5676-0.0285 2.3533-0.0249 0.29657-5e-5 0.29657-5e-5 0.59911-1e-4 0.63209 1.5e-4 1.2641 2e-3 1.8962 4e-3 0.44671 4.4e-4 0.89343 6.6e-4 1.3402 8.8e-4 1.1596 8.8e-4 2.3192 3e-3 3.4788 5e-3 1.4 3e-3 2.8 4e-3 4.2 5e-3 2.1123 2e-3 4.2246 6e-3 6.3369 0.0101v18.008c-3.7029 0.0543-3.7029 0.0543-7.4806 0.10981-0.75901 0.0115-1.518 0.0229-2.3 0.0347-0.97895 0.0139-0.97895 0.0139-1.4473 0.0204-0.30508 4e-3 -0.61015 9e-3 -0.91522 0.0137-4.1513 0.065-8.3013 0.041-12.454 0.041v26.793c2.4641-0.21741 4.9281-0.43483 7.4669-0.65884 1.6064-0.12073 3.2122-0.23828 4.8195-0.34486 0.41491-0.028 0.82985-0.0561 1.2448-0.0842 0.85339-0.0577 1.7068-0.11481 2.5603-0.17152 1.0768-0.0716 2.1535-0.14451 3.2302-0.21777 4.3187-0.29339 8.6344-0.58157 12.962-0.71891 5e-3 2.3442 9e-3 4.6884 0.0114 7.0326 1e-3 1.0884 3e-3 2.1768 5e-3 3.2652 2e-3 1.0494 4e-3 2.0989 4e-3 3.1483 4.4e-4 0.40131 1e-3 0.80262 2e-3 1.2039 2e-3 0.56008 2e-3 1.1202 2e-3 1.6802 8.8e-4 0.1676 2e-3 0.3352 2e-3 0.50788-2e-3 1.1451-2e-3 1.1451-0.24694 1.3898-0.52979 0.0524-1.0549 0.0911-1.5861 0.12149-0.25186 0.0157-0.25186 0.0157-0.5088 0.0317-0.36967 0.0229-0.73938 0.0453-1.1091 0.0673-0.60043 0.0358-1.2008 0.0728-1.8011 0.11022-0.87061 0.0541-1.7412 0.10785-2.6119 0.16122-7.8337 0.48127-15.661 1.0204-23.486 1.6356-0.40782 0.032-0.81564 0.0639-1.2235 0.0959-3.3514 0.26303-6.7026 0.52699-10.051 0.82343-0.17619 0.0155-0.35241 0.031-0.53397 0.047-0.82741 0.0729-1.6547 0.14671-2.4818 0.22279-0.29485 0.0263-0.58973 0.0525-0.88458 0.0787-0.25155 0.023-0.50307 0.0459-0.76224 0.0696-1.0821 0.0634-2.1675 0.0489-3.2514 0.0489v-106.73zm289.45 0h19.985c2.0338 5.1903 4.0652 10.381 6.0806 15.579 0.0862 0.22217 0.17235 0.44435 0.26114 0.67325 0.92815 2.3936 1.8531 4.7883 2.7714 7.1857 0.0776 0.20252 0.15526 0.40504 0.23525 0.61369 0.36521 0.95295 0.72986 1.9061 1.0933 2.8598 0.1276 0.33345 0.25521 0.66689 0.38288 1.0003 0.0576 0.15202 0.11531 0.30403 0.17472 0.46065 0.23134 0.69057 0.23134 0.69057 0.64024 1.2757 3.4128-7.8444 3.4128-7.8444 6.7943-15.702 1.0684-2.4974 2.1373-4.9946 3.2124-7.4891 0.15255-0.35423 0.30487-0.70856 0.45695-1.063 0.21121-0.49211 0.42322-0.98386 0.63543-1.4755 0.0607-0.14197 0.12143-0.28393 0.184-0.4302 0.51547-1.1904 1.091-2.3214 1.6741-3.4877h20.204c-2.5175 6.0421-2.5175 6.0421-3.3534 7.9533-0.1446 0.33221-0.1446 0.33221-0.29213 0.67113-0.20345 0.46744-0.4071 0.93481-0.6109 1.4021-0.5533 1.269-1.1051 2.5386-1.6569 3.8083-0.11222 0.25826-0.22444 0.51651-0.34007 0.78259-1.1089 2.554-2.2053 5.1132-3.2998 7.6734-1.5947 3.7292-3.2014 7.453-4.8178 11.173-1.6197 3.7277-3.2372 7.4563-4.8476 11.188-0.2049 0.47478-0.40986 0.94953-0.61492 1.4242-0.0966 0.22377-0.19328 0.44755-0.29285 0.6781-0.0945 0.21851-0.18889 0.43703-0.28622 0.66217-0.18338 0.42605-0.36564 0.85258-0.54673 1.2796-0.42502 1.001-0.8621 1.9901-1.3382 2.968-1.073 2.1008-1.073 2.1008-1.0142 4.3806 0.18882 0.44044 0.39317 0.87442 0.60908 1.3022 0.17474 0.39931 0.34936 0.79868 0.5218 1.199 0.13201 0.30428 0.26593 0.60773 0.40156 0.91041 0.99112 2.2179 1.8272 4.4988 2.6917 6.7681 0.47123 1.2338 0.94768 2.4655 1.4244 3.6972 0.16012 0.41371 0.32013 0.82746 0.48012 1.2412 1.4435 3.7333 2.8906 7.4651 4.3387 11.197 0.95113 2.4508 1.9014 4.902 2.8518 7.3531 0.34715 0.89533 0.69429 1.7907 1.0415 2.686 0.086 0.22171 0.17193 0.44342 0.2605 0.67186 0.61417 1.5839 1.2285 3.1678 1.843 4.7516 0.86539 2.2308 1.7304 4.4617 2.5949 6.6928 0.35483 0.91561 0.7098 1.8312 1.0648 2.7467 0.4437 1.1443 0.88704 2.2887 1.3301 3.4332 0.16688 0.43092 0.3339 0.86179 0.50102 1.2926 0.22921 0.59089 0.45796 1.182 0.6866 1.7731 0.0684 0.17604 0.13682 0.35207 0.2073 0.53344 0.4627 1.1984 0.4627 1.1984 0.4627 1.4431-2.2818-0.15676-4.5423-0.4483-6.8089-0.74635-0.19544-0.0256-0.39087-0.0513-0.59224-0.0777-1.0304-0.13525-2.0606-0.27135-3.0909-0.4081-1.0631-0.14092-2.1266-0.2786-3.1902-0.4156-0.82034-0.1063-1.6404-0.21506-2.4603-0.32449-0.39223-0.0519-0.78462-0.10285-1.1771-0.15284-0.54642-0.0698-1.0923-0.14309-1.6381-0.21726-0.16188-0.0199-0.32375-0.0398-0.49055-0.0602-0.61455-0.0865-1.0957-0.16147-1.6065-0.52658-0.27241-0.40128-0.4557-0.77572-0.62902-1.2291-0.0681-0.17549-0.13618-0.35098-0.20632-0.53179-0.0725-0.19221-0.14504-0.38443-0.21977-0.58247-0.0785-0.20374-0.15698-0.40749-0.23787-0.61741-0.26178-0.68061-0.52105-1.3622-0.78042-2.0437-0.18493-0.4821-0.37007-0.96413-0.55535-1.4461-0.39432-1.0262-0.78769-2.0528-1.1804-3.0797-0.6071-1.5863-1.2182-3.1711-1.8304-4.7555-0.15158-0.39226-0.15158-0.39226-0.30621-0.79245-0.20413-0.52825-0.40826-1.0565-0.61241-1.5847-0.5061-1.31-1.0115-2.6204-1.5168-3.9307-1.1143-2.8885-2.2297-5.7766-3.3457-8.6644-0.0811-0.20991-0.16223-0.41982-0.24579-0.63609-0.43962-1.1377-0.87927-2.2754-1.319-3.413-0.45278 0.67916-0.75787 1.3394-1.0869 2.0863-0.0951 0.21543-0.0951 0.21543-0.19218 0.4352-0.21028 0.47688-0.4196 0.95418-0.6288 1.4315-0.14925 0.33945-0.2985 0.6789-0.44775 1.0183-1.1225 2.5565-2.2269 5.1206-3.3236 7.6883-1.393 3.2615-2.7984 6.5176-4.2041 9.7737-0.20394 0.4724-0.4078 0.94483-0.61158 1.4173-0.19379 0.44856-0.38811 0.89689-0.58301 1.345-0.40655 0.93628-0.80779 1.8723-1.1784 2.8235-0.0872 0.21924-0.0872 0.21924-0.17618 0.44291-0.1465 0.37131-0.28826 0.74448-0.42954 1.1178-0.31488 0.50727-0.31488 0.50727-0.76997 0.65856-0.83609 0.0888-1.6302 7e-3 -2.4611-0.0882-0.27012-0.0289-0.27012-0.0289-0.54571-0.0583-0.59314-0.0638-1.186-0.12993-1.7788-0.19609-0.41202-0.0448-0.82404-0.0894-1.2361-0.13389-1.0829-0.11731-2.1656-0.23663-3.2483-0.35636-1.1054-0.12189-2.211-0.24189-3.3167-0.36204-2.1682-0.23592-4.3361-0.47396-6.5039-0.71332 0.67452-1.7868 1.3813-3.5525 2.1481-5.3016 0.0979-0.22488 0.1959-0.44977 0.29681-0.68147 0.20995-0.48193 0.42014-0.96374 0.6306-1.4454 0.56838-1.3013 1.1347-2.6034 1.7011-3.9056 0.17343-0.39858 0.17343-0.39858 0.35035-0.80522 1.1193-2.5744 2.225-5.1544 3.3282-7.7357 1.7028-3.9828 3.4218-7.9583 5.149-11.931 1.7667-4.0636 3.5183-8.1333 5.2566-12.209 0.78455-1.8379 1.5702-3.6744 2.3955-5.4944 0.17611-0.39014 0.17611-0.39014 0.3558-0.78817 0.20503-0.45091 0.41252-0.90071 0.62324-1.349 0.0857-0.18819 0.17141-0.37638 0.25972-0.57027 0.073-0.15577 0.14599-0.31155 0.22121-0.47204 0.32211-1.1929-0.43163-2.5021-0.85862-3.6045-0.0778-0.20291-0.15562-0.40582-0.2358-0.61488-0.25651-0.66812-0.51431-1.3357-0.77218-2.0033-0.18051-0.46912-0.36096-0.93827-0.54137-1.4074-1.333-3.4631-2.6794-6.9209-4.0314-10.377-1.0614-2.7133-2.1159-5.4292-3.1686-8.1459-0.0874-0.2256-0.17486-0.45121-0.26494-0.68365-0.35545-0.91728-0.71089-1.8346-1.0663-2.7519-0.60581-1.5636-1.2122-3.127-1.8189-4.6902-1.051-2.7082-2.101-5.4168-3.1501-8.1257-0.0779-0.20109-0.0779-0.20109-0.15733-0.40624-0.67459-1.7418-1.3488-3.4838-2.0222-5.2261-0.27513-0.71179-0.55037-1.4235-0.8259-2.1351-0.3057-0.78954-0.61081-1.5793-0.91585-2.3691-0.0924-0.2385-0.18485-0.47699-0.28008-0.72272-0.0834-0.2163-0.16686-0.43259-0.25282-0.65544-0.0732-0.18943-0.14648-0.37887-0.22194-0.57404-0.15535-0.42923-0.15535-0.42923-0.15535-0.64885zm-365.88 0h17.569c2.2684 6.0491 2.2684 6.0491 3.1046 8.3891 0.14752 0.41118 0.29503 0.82235 0.44257 1.2335 0.15366 0.4285 0.30713 0.85708 0.46057 1.2857 0.32648 0.91198 0.65353 1.8238 0.98069 2.7355 0.0839 0.23378 0.0839 0.23378 0.16948 0.47229 0.11371 0.31693 0.22745 0.63386 0.34117 0.95079 0.17167 0.47841 0.34327 0.95683 0.5149 1.4353 1.144 3.1891 2.2931 6.3764 3.4431 9.5633 0.10001 0.27717 0.2 0.55434 0.30001 0.83151 0.45052 1.2487 0.90108 2.4974 1.3517 3.7462 0.9049 2.5076 1.8093 5.0154 2.7137 7.5232 0.3497 0.96961 0.69941 1.9392 1.0491 2.9088 0.93679 2.5971 1.8734 5.1944 2.8093 7.7918 0.38465 1.0675 0.76939 2.135 1.1542 3.2025 0.26105 0.72425 0.52204 1.4485 0.78288 2.1728 0.28888 0.80207 0.57795 1.6041 0.86703 2.406 0.0824 0.22893 0.1648 0.45786 0.2497 0.69373 0.76435 2.1194 1.5458 4.2317 2.3248 6.3459 0.10871-31.526 0.10871-31.526 0.21961-63.688h18.448v108.49c-3.2128 0.49428-3.2128 0.49428-4.6298 0.65037-0.15468 0.0172-0.30933 0.0344-0.46868 0.0521-0.49857 0.0553-0.99722 0.10966-1.4959 0.16396-0.35222 0.0387-0.70441 0.0775-1.0566 0.11628-0.73212 0.0805-1.4643 0.16055-2.1965 0.24027-0.93615 0.10197-1.8722 0.20515-2.8081 0.30868-0.72475 0.08-1.4496 0.15936-2.1744 0.2385-0.34526 0.0378-0.69049 0.0758-1.0357 0.11401-0.48164 0.0532-0.96336 0.10555-1.4451 0.15764-0.27326 0.0299-0.54653 0.0598-0.82807 0.0906-0.69321 0.0591-1.3703 0.0757-2.0656 0.0637-1.6507-4.7052-3.2946-9.4126-4.9276-14.124-1.1819-3.4097-2.3659-6.8186-3.555-10.226-0.10094-0.28922-0.10094-0.28922-0.20391-0.58428-0.47178-1.3517-0.94375-2.7034-1.4157-4.0551-0.54001-1.5464-1.0799-3.0928-1.6196-4.6393-0.0673-0.19277-0.13456-0.38553-0.20387-0.58414-1.2562-3.6001-2.5067-7.2021-3.7546-10.805-1.5742-4.5423-3.1603-9.0803-4.7437-13.619-0.0725 20.22-0.14495 40.44-0.21961 61.272-17.349 2.4158-17.349 2.4158-18.448 2.4158v-115.74z" fill="#e50914"/>
</svg>
